<?xml version="1.0" standalone="no"?>
<!DOCTYPE svg PUBLIC "-//W3C//DTD SVG 20010904//EN"
 "http://www.w3.org/TR/2001/REC-SVG-20010904/DTD/svg10.dtd">
<svg version="1.0" xmlns="http://www.w3.org/2000/svg"
 width="700.000000pt" height="700.000000pt" viewBox="0 0 700.000000 700.000000"
 preserveAspectRatio="xMidYMid meet">
<metadata>
Created by potrace 1.11, written by Peter Selinger 2001-2013
</metadata>
<g transform="translate(0.000000,700.000000) scale(0.100000,-0.100000)"
fill="#000000" stroke="none">
<path d="M3350 6984 c-249 -53 -446 -217 -545 -453 l-32 -76 -295 -1 c-346 -1
-369 -5 -428 -71 -47 -54 -56 -92 -54 -230 1 -57 -2 -103 -5 -104 -3 -1 -226
-2 -496 -3 -406 -2 -537 -7 -605 -21 -89 -18 -197 -81 -279 -163 -94 -93 -155
-205 -175 -321 -9 -57 -12 -627 -11 -2555 l2 -2481 22 -65 c67 -194 197 -331
383 -403 l83 -32 2570 -2 c2210 -1 2578 0 2625 13 205 53 375 219 446 434 18
53 19 164 20 2545 2 2747 6 2560 -61 2700 -80 165 -232 288 -412 332 -71 17
-177 20 -813 22 l-286 1 3 103 c3 124 -13 189 -58 235 -62 63 -72 65 -413 66
l-308 1 -27 66 c-91 225 -276 392 -506 455 -80 22 -262 26 -345 8z"/>
</g>
</svg>
